<?xml version="1.0" encoding="utf-8"?>
<!-- Generator: Adobe Illustrator 17.0.0, SVG Export Plug-In . SVG Version: 6.00 Build 0)  -->
<!DOCTYPE svg PUBLIC "-//W3C//DTD SVG 1.1//EN" "http://www.w3.org/Graphics/SVG/1.1/DTD/svg11.dtd">
<svg version="1.1" id="Calque_1" xmlns="http://www.w3.org/2000/svg" xmlns:xlink="http://www.w3.org/1999/xlink" x="0px" y="0px"
	 width="800px" height="800px" viewBox="0 0 800 800" enable-background="new 0 0 800 800" xml:space="preserve">
<path fill="none" stroke="#1C274C" stroke-width="62" stroke-linecap="round" stroke-linejoin="round" d="M400,1023.539v286.257
	 M400,1309.795l122.681-122.681 M400,1309.795l-122.681-122.681"/>
<path fill="none" stroke="#1C274C" stroke-width="62" stroke-linecap="round" d="M531.83,1432.477H400H268.17"/>
<path opacity="0.6" fill="none" stroke="#1C274C" stroke-width="69" enable-background="new    " d="M59.167,1262.457
	c0-160.67,0-241.005,49.914-290.919S239.33,921.624,400,921.624c160.669,0,241.006,0,290.918,49.914
	c49.915,49.914,49.915,130.249,49.915,290.919c0,160.669,0,241.006-49.915,290.918C641.006,1603.29,560.669,1603.29,400,1603.29
	c-160.67,0-241.005,0-290.919-49.915C59.167,1503.463,59.167,1423.126,59.167,1262.457z"/>
<g>
	<g>
		<g>
			<path fill="#1C274C" d="M400,55.523c23.696,0,42.907,19.21,42.907,42.906v292.617l96.555-96.555
				c16.756-16.756,43.923-16.756,60.68,0c16.756,16.756,16.756,43.923,0,60.679L430.539,524.771
				c-0.725,0.735-1.476,1.444-2.252,2.124c-3.203,2.813-6.722,5.069-10.436,6.766c-5.436,2.49-11.482,3.879-17.852,3.879
				c-6.181,0-12.059-1.308-17.369-3.661c-3.912-1.73-7.618-4.074-10.971-7.03c-0.758-0.667-1.491-1.36-2.2-2.078L199.86,355.17
				c-16.756-16.756-16.756-43.923,0-60.679c16.755-16.755,43.923-16.755,60.678,0l96.555,96.555V98.429
				C357.093,74.733,376.302,55.523,400,55.523z"/>
		</g>
	</g>
	<g>
		<g>
			<path fill="#1C274C" d="M245.743,658.664h308.513c23.696,0,42.907,19.21,42.907,42.907s-19.21,42.907-42.907,42.907H245.743
				c-23.697,0-42.907-19.21-42.907-42.907S222.046,658.664,245.743,658.664z"/>
		</g>
	</g>
</g>
</svg>
