<?xml version="1.0" encoding="utf-8"?>
<!-- Generator: Adobe Illustrator 17.0.0, SVG Export Plug-In . SVG Version: 6.00 Build 0)  -->
<!DOCTYPE svg PUBLIC "-//W3C//DTD SVG 1.1//EN" "http://www.w3.org/Graphics/SVG/1.1/DTD/svg11.dtd">
<svg version="1.1" id="Calque_1" xmlns="http://www.w3.org/2000/svg" xmlns:xlink="http://www.w3.org/1999/xlink" x="0px" y="0px"
	 width="800px" height="800px" viewBox="0 0 800 800" enable-background="new 0 0 800 800" xml:space="preserve">
<g>
	<path fill="none" stroke="#1C274C" stroke-width="71" d="M402.298,118.512c167.741,0,251.612,0,303.722,8.279
		s52.111,21.603,52.111,48.251s3.544,49.365-46.333,53.103c-55.224,4.139-141.759,3.427-309.5,3.427
		c-167.74,0-251.613,0-303.721-8.279c-52.112-8.278-52.112-21.603-52.112-48.251s0-39.973,52.112-48.251
		C150.685,118.512,234.558,118.512,402.298,118.512z"/>
</g>
<g>
	<path fill="none" stroke="#1C274C" stroke-width="71" d="M547.354,316.99c99.397,0,152.52-3.559,183.399,4.458
		c30.879,8.017,27.455,24.479,27.455,50.286c0,25.807-12.901,42.151-30.879,48.247c-39.835,13.507-80.578,6.498-179.975,6.498
		c-99.397,0-149.097,0-179.974-8.017c-30.88-8.017-30.88-20.921-30.88-46.728c0-25.807,0-38.71,30.88-46.728
		C398.257,316.99,447.957,316.99,547.354,316.99z"/>
</g>
<g>
	<path fill="none" stroke="#1C274C" stroke-width="71" d="M490.839,512.99c126.967,0,194.824-3.559,234.268,4.458
		c39.444,8.017,35.071,24.479,35.071,50.286c0,25.807-16.48,42.151-39.444,48.247c-50.884,13.507-102.927,6.498-229.895,6.498
		c-126.966,0-190.452,0-229.894-8.017c-39.445-8.017-39.445-20.921-39.445-46.728c0-25.807,0-38.71,39.445-46.728
		C300.387,512.99,363.872,512.99,490.839,512.99z"/>
</g>
</svg>
