<?xml version="1.0" encoding="utf-8"?>
<!-- Generator: Adobe Illustrator 17.0.0, SVG Export Plug-In . SVG Version: 6.00 Build 0)  -->
<!DOCTYPE svg PUBLIC "-//W3C//DTD SVG 1.1//EN" "http://www.w3.org/Graphics/SVG/1.1/DTD/svg11.dtd">
<svg version="1.1" id="Calque_1" xmlns="http://www.w3.org/2000/svg" xmlns:xlink="http://www.w3.org/1999/xlink" x="0px" y="0px"
	 width="800px" height="800px" viewBox="0 0 800 800" enable-background="new 0 0 800 800" xml:space="preserve">
<g>
	<path fill="#1C274C" d="M69.266,998.599v69.052c0,11.217,13.403,20.311,29.937,20.311h649.591c16.534,0,29.937-9.094,29.937-20.311
		v-69.052c0-11.217-13.403-20.311-29.937-20.311H99.203C82.669,978.288,69.266,987.382,69.266,998.599z"/>
	<path fill="#1C274C" d="M297.254,1412.32c0,11.217,9.096,20.311,20.317,20.311h440.843c11.221,0,20.317-9.094,20.317-20.311
		v-69.052c0-11.218-9.097-20.311-20.317-20.311H317.571c-11.221,0-20.317,9.094-20.317,20.311V1412.32z"/>
	<path fill="#1C274C" d="M773.788,1178.888c0-14.319-9.975-25.926-22.279-25.926H400.086c-12.304,0-22.278,11.608-22.278,25.926
		v53.143c0,14.319,9.974,25.926,22.278,25.926h351.423c12.305,0,22.279-11.608,22.279-25.926V1178.888z"/>
</g>
<g>
	<g>
		<path fill="#1C274C" d="M648.362,270.769H151.637c-26.343,0-46.979-17.403-46.979-39.619v-52.803
			c0-22.216,20.636-39.618,46.979-39.618h496.726c26.344,0,46.98,17.402,46.98,39.618v52.803
			C695.342,253.366,674.706,270.769,648.362,270.769z"/>
	</g>
	<g>
		<path fill="#1C274C" d="M655.719,661.27H318.617c-21.848,0-39.623-17.773-39.623-39.618V568.85
			c0-21.846,17.775-39.619,39.623-39.619h337.101c21.849,0,39.623,17.773,39.623,39.619v52.802
			C695.342,643.497,677.567,661.27,655.719,661.27z"/>
	</g>
	<g>
		<path fill="#1C274C" d="M650.438,464.231H381.714c-22.675,0-41.123-19.699-41.123-43.912v-40.638
			c0-24.213,18.448-43.912,41.123-43.912h268.724c22.676,0,41.124,19.699,41.124,43.912v40.638
			C691.562,444.532,673.114,464.231,650.438,464.231z"/>
	</g>
</g>
</svg>
