<?xml version="1.0" encoding="utf-8"?>
<!-- Generator: Adobe Illustrator 17.0.0, SVG Export Plug-In . SVG Version: 6.00 Build 0)  -->
<!DOCTYPE svg PUBLIC "-//W3C//DTD SVG 1.1//EN" "http://www.w3.org/Graphics/SVG/1.1/DTD/svg11.dtd">
<svg version="1.1" id="Calque_1" xmlns="http://www.w3.org/2000/svg" xmlns:xlink="http://www.w3.org/1999/xlink" x="0px" y="0px"
	 width="800px" height="800px" viewBox="0 0 800 800" enable-background="new 0 0 800 800" xml:space="preserve">
<g opacity="0.9">
	<path fill="none" stroke="#1C274C" stroke-width="71" d="M726.073,852.562c52.584,4.347,53.631,24.894,53.631,51.542
		s0.369,54.458-36.631,56.458c-55.533,4.162-155.254,0.072-324.202,0.072c-167.74,0-266.69,9.207-318.798,0.928
		c-39-8-37.035-30.81-37.035-57.458s0.958-41.833,33.035-48.542C130.996,849.271,722.553,852.271,726.073,852.562z"/>
</g>
<g opacity="0.9">
	<path fill="none" stroke="#1C274C" stroke-width="71" d="M556.927,1046.052c99.397,0,153.52-3.559,184.399,4.458
		c30.879,8.017,27.455,24.479,27.455,50.286s-12.901,42.151-30.879,48.247c-37.829,2.519-330.072,6.498-360.949-1.519
		c-30.88-8.017-30.88-20.921-30.88-46.728s0-38.71,30.88-46.728C407.83,1046.052,457.53,1046.052,556.927,1046.052z"/>
</g>
<g opacity="0.9">
	<path fill="none" stroke="#1C274C" stroke-width="71" d="M500.412,1242.052c126.967,0,199.824-3.559,239.268,4.458
		s35.071,24.479,35.071,50.286s-16.48,42.151-39.444,48.247c-50.884,13.507-107.927,6.498-234.895,6.498
		c-126.966,0-190.452,0-229.894-8.017c-39.445-8.017-39.445-20.921-39.445-46.728s0-38.71,39.445-46.728
		C309.96,1242.052,373.445,1242.052,500.412,1242.052z"/>
</g>
<path fill="none" stroke="#1C274C" stroke-width="63" d="M752.232,229.026c0,11.217-13.403,20.311-29.937,20.311H72.704
	c-16.534,0-29.937-9.094-29.937-20.311v-69.052c0-11.217,13.403-20.311,29.937-20.311h649.591c16.534,0,29.937,9.094,29.937,20.311
	L752.232,229.026L752.232,229.026z"/>
<path fill="none" stroke="#1C274C" stroke-width="63" d="M752.232,636.372c0,11.217-9.096,20.311-20.317,20.311H291.072
	c-11.221,0-20.317-9.094-20.317-20.311V567.32c0-11.217,9.096-20.311,20.317-20.311h440.843c11.22,0,20.317,9.093,20.317,20.311
	V636.372z"/>
<path fill="none" stroke="#1C274C" stroke-width="63" d="M747.289,425.071c0,14.318-9.974,25.926-22.279,25.926H373.587
	c-12.304,0-22.278-11.607-22.278-25.926v-53.143c0-14.318,9.974-25.926,22.278-25.926H725.01c12.304,0,22.279,11.607,22.279,25.926
	V425.071z"/>
</svg>
