<?xml version="1.0" encoding="utf-8"?>
<!-- Generator: Adobe Illustrator 17.0.0, SVG Export Plug-In . SVG Version: 6.00 Build 0)  -->
<!DOCTYPE svg PUBLIC "-//W3C//DTD SVG 1.1//EN" "http://www.w3.org/Graphics/SVG/1.1/DTD/svg11.dtd">
<svg version="1.1" id="Calque_1" xmlns="http://www.w3.org/2000/svg" xmlns:xlink="http://www.w3.org/1999/xlink" x="0px" y="0px"
	 width="800px" height="800px" viewBox="0 0 800 800" enable-background="new 0 0 800 800" xml:space="preserve">
<g>
	<g>
		<path fill="#1C274C" d="M400,454.365c-23.696,0-42.907-19.21-42.907-42.906V154.843l-96.555,96.555
			c-16.756,16.756-43.923,16.756-60.679,0c-16.756-16.756-16.756-43.923,0-60.679L369.461,21.118
			c0.725-0.735,1.476-1.444,2.252-2.124c3.203-2.813,6.722-5.069,10.436-6.766c5.436-2.49,11.482-3.879,17.852-3.879
			c6.181,0,12.059,1.308,17.369,3.661c3.912,1.73,7.618,4.074,10.971,7.03c0.758,0.667,1.491,1.36,2.2,2.078L600.14,190.718
			c16.756,16.756,16.756,43.923,0,60.679c-16.755,16.755-43.923,16.755-60.678,0l-96.555-96.555v256.617
			C442.907,435.156,423.697,454.365,400,454.365z"/>
	</g>
</g>
<g>
	<g>
		<path fill="#1C274C" d="M554.257,619.306H245.743c-23.696,0-42.907-19.21-42.907-42.907s19.21-42.907,42.907-42.907h308.513
			c23.697,0,42.907,19.21,42.907,42.907S577.954,619.306,554.257,619.306z"/>
	</g>
</g>
<g opacity="0.6" enable-background="new    ">
	<path fill="none" stroke="#1C274C" stroke-width="80" d="M400,300.738"/>
</g>
<path fill="none" stroke="#1C274C" stroke-width="62" stroke-linecap="round" stroke-linejoin="round" d="M430.003,1419.71v-286.257
	 M430.003,1133.454l-122.681,122.681 M430.003,1133.454l122.681,122.681"/>
<path fill="none" stroke="#1C274C" stroke-width="62" stroke-linecap="round" d="M593.579,1571.391H430.003H266.428"/>
<path opacity="0.6" fill="none" stroke="#1C274C" stroke-width="80" enable-background="new    " d="M594.382,1406.225
	c58.738,2.645,97.713,8.906,126.539,23.727c49.915,25.662,49.915,66.965,49.915,149.57s0,123.908-49.915,149.57
	c-49.912,25.663-130.249,25.663-290.918,25.663c-160.67,0-241.005,0-290.919-25.663c-49.914-25.661-49.914-66.965-49.914-149.57
	s0-123.908,49.914-149.57c31.5-16.195,58.399-20.498,126.395-24.374"/>
<g opacity="0.6" enable-background="new    ">
	<path fill="#1C274C" d="M400,795c-166.908,0-250.686,0-309.209-30.09c-34.251-17.607-54.614-42.674-64.084-78.884
		c-7.54-28.836-7.54-63.002-7.54-106.259s0-77.424,7.541-106.259c9.469-36.209,29.831-61.275,64.084-78.886
		c38.288-19.685,70.598-24.642,142.407-28.735l4.553,79.871c-65.345,3.725-85.978,7.465-110.381,20.012
		c-25.041,12.874-28.204,25.659-28.204,113.997s3.163,101.122,28.202,113.995C168.676,715,250.84,715,400,715
		s231.325,0,272.627-21.236c25.043-12.875,28.206-25.659,28.206-113.996c0-88.338-3.163-101.122-28.204-113.996
		c-21.495-11.052-54.406-16.836-110.049-19.341l3.598-79.92c68.778,3.097,110.217,11.242,143.03,28.113
		c34.252,17.609,54.615,42.676,64.084,78.885c7.541,28.835,7.541,63.002,7.541,106.259c0,43.256,0,77.423-7.541,106.258
		c-9.469,36.209-29.832,61.275-64.085,78.886C650.687,795,566.908,795,400,795z"/>
</g>
<path opacity="0.6" fill="none" stroke="#1C274C" stroke-width="80" enable-background="new    " d="M594.382,1344.842"/>
</svg>
