<?xml version="1.0" encoding="utf-8"?>
<!-- Generator: Adobe Illustrator 17.0.0, SVG Export Plug-In . SVG Version: 6.00 Build 0)  -->
<!DOCTYPE svg PUBLIC "-//W3C//DTD SVG 1.1//EN" "http://www.w3.org/Graphics/SVG/1.1/DTD/svg11.dtd">
<svg version="1.1" id="Calque_1" xmlns="http://www.w3.org/2000/svg" xmlns:xlink="http://www.w3.org/1999/xlink" x="0px" y="0px"
	 width="800px" height="800px" viewBox="0 0 800 800" enable-background="new 0 0 800 800" xml:space="preserve">
<g>
	<g opacity="0.9" enable-background="new    ">
		<path fill="#1C274C" d="M235.458,128.5v540h-103v-540H235.458 M266.458,52.5h-165c-24.853,0-45,19.39-45,43.31v605.38
			c0,23.919,20.147,43.31,45,43.31h165c24.853,0,45-19.39,45-43.31V95.81C311.458,71.891,291.311,52.5,266.458,52.5L266.458,52.5z"
			/>
	</g>
	<g opacity="0.9" enable-background="new    ">
		<path fill="#F2F2F2" d="M468.991,206.259c-5.851,0-13.46,0-19.632-0.307V102.95c4.745-0.373,11.204-0.696,19.94-0.84
			l216.212-0.003c3.584,0,9.417,0,14.431,0.252v101.661c-3.988,1.112-10.459,2.238-19.633,2.238H468.991z"/>
		<path fill="#1C274C" d="M661.942,140.11v28.149H487.359V140.11H661.942 M685.511,64.107c-1.714,0-3.447,0.003-5.201,0.003H468.991
			c-57.534,0.914-56.554,9.145-57.632,28.65v126.507c1.078,24.992,25.802,24.992,57.632,24.992H680.31
			c31.829,0,56.652-10.059,57.632-30.479V94.589C737.942,64.925,714.902,64.107,685.511,64.107L685.511,64.107z"/>
	</g>
	<g opacity="0.9" enable-background="new    ">
		<path fill="#1C274C" d="M667.542,424.503V671.5H486.443V424.503H667.542 M690.062,348.497c-1.745,0-3.516,0.006-5.302,0.006
			H469.225c-58.682,2.025-57.682,20.254-58.782,63.454v280.19c1.099,55.353,26.317,55.353,58.782,55.353H684.76
			c32.464,0,57.782-22.278,58.782-67.504V416.007C743.542,350.302,720.045,348.497,690.062,348.497L690.062,348.497z"/>
	</g>
</g>
</svg>
