<?xml version="1.0" encoding="utf-8"?>
<!-- Generator: Adobe Illustrator 17.0.0, SVG Export Plug-In . SVG Version: 6.00 Build 0)  -->
<!DOCTYPE svg PUBLIC "-//W3C//DTD SVG 1.1//EN" "http://www.w3.org/Graphics/SVG/1.1/DTD/svg11.dtd">
<svg version="1.1" id="Calque_1" xmlns="http://www.w3.org/2000/svg" xmlns:xlink="http://www.w3.org/1999/xlink" x="0px" y="0px"
	 width="800px" height="800px" viewBox="0 0 800 800" enable-background="new 0 0 800 800" xml:space="preserve">
<path opacity="0.9" fill="none" stroke="#1C274C" stroke-width="68" enable-background="new    " d="M305.5,702.19
	c0,23.92-20.147,43.31-45,43.31h-165c-24.853,0-45-19.391-45-43.31V96.81c0-23.92,20.147-43.31,45-43.31h165
	c24.853,0,45,19.391,45,43.31V702.19z"/>
<g opacity="0.9" enable-background="new    ">
	<path fill="#F2F2F2" d="M491.742,254.258c-14.485,0-28.168,0-40.916-3.869c-22.415-6.802-36.394-24.707-37.394-47.895l-0.031-1.465
		v-97.332l0.052-1.875l0.055-1.009c0.482-9.02,1.611-30.143,22.563-42.835c13.331-8.075,30.978-9.935,55.131-10.319l0.54-0.004
		l166.585-0.002c12.379,0,27.786,0,41.676,5.76c20.759,8.609,32.665,27.45,32.665,51.692v91.704l-0.039,1.629
		c-1.235,25.75-22.484,55.82-78.302,55.82H491.742z"/>
	<path fill="#1C274C" d="M658.327,81.653c22.617,0,40.341,0.627,40.341,23.452v91.703c-0.754,15.711-19.852,23.45-44.341,23.45
		H491.742c-24.489,0-43.512,0-44.341-19.229v-97.332c0.83-15.007,0.075-21.339,44.341-22.043h162.585
		C655.674,81.655,657.011,81.653,658.327,81.653 M658.333,13.653v68l-0.002-68l-2.034,0.001l-1.969,0.001H491.742l-1.081,0.009
		c-29.833,0.474-52.318,3.188-72.205,15.233c-16.814,10.185-28.811,25.441-34.693,44.119c-3.396,10.783-3.905,20.296-4.208,25.979
		l-0.051,0.949l-0.104,3.754v97.332l0.063,2.929c1.625,37.691,25.186,67.949,61.489,78.966c17.576,5.334,34.461,5.334,50.789,5.334
		h162.585c23.236,0,43.784-4.31,61.073-12.81c30.508-14.999,49.644-43.178,51.19-75.379l0.078-3.261v-91.703
		c0-38.102-20.05-69.165-53.635-83.096C692.887,13.653,672.915,13.653,658.333,13.653L658.333,13.653z"/>
</g>
<path opacity="0.9" fill="none" stroke="#1C274C" stroke-width="68" enable-background="new    " d="M737.584,680.996
	c-1,45.226-26.318,67.504-58.782,67.504H463.267c-32.465,0-57.683,0-58.782-55.353v-280.19c1.1-43.2,0.1-61.429,58.782-63.454
	h215.535c32.465,0,58.782-2.025,58.782,67.504V680.996z"/>
</svg>
