<?xml version="1.0" encoding="utf-8"?>
<!-- Generator: Adobe Illustrator 17.0.0, SVG Export Plug-In . SVG Version: 6.00 Build 0)  -->
<!DOCTYPE svg PUBLIC "-//W3C//DTD SVG 1.1//EN" "http://www.w3.org/Graphics/SVG/1.1/DTD/svg11.dtd">
<svg version="1.1" id="Calque_1" xmlns="http://www.w3.org/2000/svg" xmlns:xlink="http://www.w3.org/1999/xlink" x="0px" y="0px"
	 width="800px" height="800px" viewBox="0 0 800 800" enable-background="new 0 0 800 800" xml:space="preserve">
<path opacity="0.9" fill="none" stroke="#1C274C" stroke-width="68" enable-background="new    " d="M305.5,702.19
	c0,23.92-20.147,43.31-45,43.31h-165c-24.853,0-45-19.391-45-43.31V96.81c0-23.92,20.147-43.31,45-43.31h165
	c24.853,0,45,19.391,45,43.31V702.19z"/>
<path opacity="0.9" fill="#F2F2F2" stroke="#1C274C" stroke-width="68" stroke-linejoin="bevel" enable-background="new    " d="
	M674.352,65.11H463.033c-57.534,0.914-56.554,9.145-57.632,28.65v126.507c1.078,24.992,25.802,24.992,57.632,24.992h211.319
	c31.829,0,56.652-10.059,57.632-30.479V95.589C731.984,64.195,706.182,65.11,674.352,65.11z"/>
<path opacity="0.9" fill="none" stroke="#1C274C" stroke-width="68" enable-background="new    " d="M737.584,680.996
	c-1,45.226-26.318,67.504-58.782,67.504H463.267c-32.465,0-57.683,0-58.782-55.353v-280.19c1.1-43.2,0.1-61.429,58.782-63.454
	h215.535c32.465,0,58.782-2.025,58.782,67.504V680.996z"/>
</svg>
